<mxfile host="app.diagrams.net" modified="2023-08-17T04:13:28.904Z" agent="Mozilla/5.0 (Windows NT 10.0; Win64; x64) AppleWebKit/537.36 (KHTML, like Gecko) Chrome/115.0.0.0 Safari/537.36 Edg/115.0.1901.203" etag="HqeQ6uuqhD27PSfs3wDs" version="21.6.8" type="github">
  <diagram id="C5RBs43oDa-KdzZeNtuy" name="Page-1">
    <mxGraphModel dx="765" dy="1599" grid="1" gridSize="10" guides="1" tooltips="1" connect="1" arrows="1" fold="1" page="1" pageScale="1" pageWidth="827" pageHeight="1169" math="0" shadow="0">
      <root>
        <mxCell id="WIyWlLk6GJQsqaUBKTNV-0" />
        <mxCell id="WIyWlLk6GJQsqaUBKTNV-1" parent="WIyWlLk6GJQsqaUBKTNV-0" />
        <object label="Start" placeholders="1" id="r9UXv5YOhCK8Kp_HPRWw-0">
          <mxCell style="ellipse;whiteSpace=wrap;html=1;" vertex="1" parent="WIyWlLk6GJQsqaUBKTNV-1">
            <mxGeometry x="355" y="-950" width="100" height="60" as="geometry" />
          </mxCell>
        </object>
        <mxCell id="r9UXv5YOhCK8Kp_HPRWw-1" value=" Console.Write(&quot;: &quot;); int n = int.Parse(Console.ReadLine());" style="shape=parallelogram;perimeter=parallelogramPerimeter;whiteSpace=wrap;html=1;fixedSize=1;" vertex="1" parent="WIyWlLk6GJQsqaUBKTNV-1">
          <mxGeometry x="310" y="-710" width="190" height="90" as="geometry" />
        </mxCell>
        <mxCell id="r9UXv5YOhCK8Kp_HPRWw-2" value="" style="endArrow=classic;html=1;rounded=0;entryX=0.5;entryY=0;entryDx=0;entryDy=0;exitX=0.5;exitY=1;exitDx=0;exitDy=0;" edge="1" parent="WIyWlLk6GJQsqaUBKTNV-1" source="r9UXv5YOhCK8Kp_HPRWw-15" target="r9UXv5YOhCK8Kp_HPRWw-1">
          <mxGeometry width="50" height="50" relative="1" as="geometry">
            <mxPoint x="410" y="-760" as="sourcePoint" />
            <mxPoint x="390" y="-680" as="targetPoint" />
          </mxGeometry>
        </mxCell>
        <mxCell id="r9UXv5YOhCK8Kp_HPRWw-3" value="if(n &amp;lt;= 10 &amp;amp;&amp;amp; n != 0" style="rhombus;whiteSpace=wrap;html=1;" vertex="1" parent="WIyWlLk6GJQsqaUBKTNV-1">
          <mxGeometry x="340" y="-570" width="130" height="120" as="geometry" />
        </mxCell>
        <mxCell id="r9UXv5YOhCK8Kp_HPRWw-5" value="if(n % 2 == 0)" style="rhombus;whiteSpace=wrap;html=1;" vertex="1" parent="WIyWlLk6GJQsqaUBKTNV-1">
          <mxGeometry x="150" y="-500" width="140" height="140" as="geometry" />
        </mxCell>
        <mxCell id="r9UXv5YOhCK8Kp_HPRWw-6" value="else" style="rhombus;whiteSpace=wrap;html=1;" vertex="1" parent="WIyWlLk6GJQsqaUBKTNV-1">
          <mxGeometry x="520" y="-510" width="150" height="150" as="geometry" />
        </mxCell>
        <mxCell id="r9UXv5YOhCK8Kp_HPRWw-7" value="" style="endArrow=classic;html=1;rounded=0;exitX=0;exitY=1;exitDx=0;exitDy=0;" edge="1" parent="WIyWlLk6GJQsqaUBKTNV-1" source="r9UXv5YOhCK8Kp_HPRWw-3" target="r9UXv5YOhCK8Kp_HPRWw-5">
          <mxGeometry width="50" height="50" relative="1" as="geometry">
            <mxPoint x="390" y="-570" as="sourcePoint" />
            <mxPoint x="440" y="-620" as="targetPoint" />
          </mxGeometry>
        </mxCell>
        <mxCell id="r9UXv5YOhCK8Kp_HPRWw-8" value="" style="endArrow=classic;html=1;rounded=0;exitX=1;exitY=1;exitDx=0;exitDy=0;" edge="1" parent="WIyWlLk6GJQsqaUBKTNV-1" source="r9UXv5YOhCK8Kp_HPRWw-3" target="r9UXv5YOhCK8Kp_HPRWw-6">
          <mxGeometry width="50" height="50" relative="1" as="geometry">
            <mxPoint x="358" y="-470" as="sourcePoint" />
            <mxPoint x="256" y="-414" as="targetPoint" />
          </mxGeometry>
        </mxCell>
        <mxCell id="r9UXv5YOhCK8Kp_HPRWw-9" value="Console.WriteLine($&quot;{n} is even&quot;);" style="shape=parallelogram;perimeter=parallelogramPerimeter;whiteSpace=wrap;html=1;fixedSize=1;" vertex="1" parent="WIyWlLk6GJQsqaUBKTNV-1">
          <mxGeometry x="135" y="-290" width="170" height="80" as="geometry" />
        </mxCell>
        <mxCell id="r9UXv5YOhCK8Kp_HPRWw-10" value="Console.WriteLine($&quot;{n} is odd&quot;);" style="shape=parallelogram;perimeter=parallelogramPerimeter;whiteSpace=wrap;html=1;fixedSize=1;" vertex="1" parent="WIyWlLk6GJQsqaUBKTNV-1">
          <mxGeometry x="508.75" y="-300" width="172.5" height="80" as="geometry" />
        </mxCell>
        <mxCell id="r9UXv5YOhCK8Kp_HPRWw-11" value="" style="endArrow=classic;html=1;rounded=0;entryX=0.5;entryY=0;entryDx=0;entryDy=0;exitX=0.5;exitY=1;exitDx=0;exitDy=0;" edge="1" parent="WIyWlLk6GJQsqaUBKTNV-1" source="r9UXv5YOhCK8Kp_HPRWw-5" target="r9UXv5YOhCK8Kp_HPRWw-9">
          <mxGeometry width="50" height="50" relative="1" as="geometry">
            <mxPoint x="390" y="-420" as="sourcePoint" />
            <mxPoint x="440" y="-470" as="targetPoint" />
          </mxGeometry>
        </mxCell>
        <mxCell id="r9UXv5YOhCK8Kp_HPRWw-12" value="" style="endArrow=classic;html=1;rounded=0;entryX=0.5;entryY=0;entryDx=0;entryDy=0;exitX=0.5;exitY=1;exitDx=0;exitDy=0;" edge="1" parent="WIyWlLk6GJQsqaUBKTNV-1" source="r9UXv5YOhCK8Kp_HPRWw-6" target="r9UXv5YOhCK8Kp_HPRWw-10">
          <mxGeometry width="50" height="50" relative="1" as="geometry">
            <mxPoint x="230" y="-360" as="sourcePoint" />
            <mxPoint x="230" y="-320" as="targetPoint" />
          </mxGeometry>
        </mxCell>
        <mxCell id="r9UXv5YOhCK8Kp_HPRWw-13" value="" style="endArrow=classic;startArrow=classic;html=1;rounded=0;entryX=0.5;entryY=1;entryDx=0;entryDy=0;exitX=0.5;exitY=0;exitDx=0;exitDy=0;" edge="1" parent="WIyWlLk6GJQsqaUBKTNV-1" source="r9UXv5YOhCK8Kp_HPRWw-3" target="r9UXv5YOhCK8Kp_HPRWw-1">
          <mxGeometry width="50" height="50" relative="1" as="geometry">
            <mxPoint x="370" y="-560" as="sourcePoint" />
            <mxPoint x="420" y="-610" as="targetPoint" />
          </mxGeometry>
        </mxCell>
        <mxCell id="r9UXv5YOhCK8Kp_HPRWw-14" value="Return invalid if greater tha&lt;br&gt;n 10 or 0" style="text;html=1;align=center;verticalAlign=middle;resizable=0;points=[];autosize=1;strokeColor=none;fillColor=none;" vertex="1" parent="WIyWlLk6GJQsqaUBKTNV-1">
          <mxGeometry x="380" y="-610" width="170" height="40" as="geometry" />
        </mxCell>
        <mxCell id="r9UXv5YOhCK8Kp_HPRWw-15" value="" style="shape=hexagon;perimeter=hexagonPerimeter2;whiteSpace=wrap;html=1;fixedSize=1;" vertex="1" parent="WIyWlLk6GJQsqaUBKTNV-1">
          <mxGeometry x="345" y="-840" width="120" height="80" as="geometry" />
        </mxCell>
        <mxCell id="r9UXv5YOhCK8Kp_HPRWw-16" value="" style="endArrow=classic;html=1;rounded=0;entryX=0.5;entryY=0;entryDx=0;entryDy=0;exitX=0.5;exitY=1;exitDx=0;exitDy=0;" edge="1" parent="WIyWlLk6GJQsqaUBKTNV-1" source="r9UXv5YOhCK8Kp_HPRWw-0" target="r9UXv5YOhCK8Kp_HPRWw-15">
          <mxGeometry width="50" height="50" relative="1" as="geometry">
            <mxPoint x="280" y="-810" as="sourcePoint" />
            <mxPoint x="330" y="-860" as="targetPoint" />
          </mxGeometry>
        </mxCell>
        <object label="stop" placeholders="1" id="r9UXv5YOhCK8Kp_HPRWw-17">
          <mxCell style="ellipse;whiteSpace=wrap;html=1;" vertex="1" parent="WIyWlLk6GJQsqaUBKTNV-1">
            <mxGeometry x="355" y="-150" width="100" height="60" as="geometry" />
          </mxCell>
        </object>
        <mxCell id="r9UXv5YOhCK8Kp_HPRWw-18" value="" style="endArrow=classic;html=1;rounded=0;exitX=0.5;exitY=1;exitDx=0;exitDy=0;" edge="1" parent="WIyWlLk6GJQsqaUBKTNV-1" source="r9UXv5YOhCK8Kp_HPRWw-10" target="r9UXv5YOhCK8Kp_HPRWw-17">
          <mxGeometry width="50" height="50" relative="1" as="geometry">
            <mxPoint x="410" y="-150" as="sourcePoint" />
            <mxPoint x="460" y="-200" as="targetPoint" />
          </mxGeometry>
        </mxCell>
        <mxCell id="r9UXv5YOhCK8Kp_HPRWw-19" value="" style="endArrow=classic;html=1;rounded=0;entryX=0;entryY=0;entryDx=0;entryDy=0;" edge="1" parent="WIyWlLk6GJQsqaUBKTNV-1" target="r9UXv5YOhCK8Kp_HPRWw-17">
          <mxGeometry width="50" height="50" relative="1" as="geometry">
            <mxPoint x="220" y="-209" as="sourcePoint" />
            <mxPoint x="460" y="-200" as="targetPoint" />
          </mxGeometry>
        </mxCell>
      </root>
    </mxGraphModel>
  </diagram>
</mxfile>
